<?xml version="1.0" encoding="UTF-8"?>
<svg id="Layer_2" xmlns="http://www.w3.org/2000/svg" viewBox="0 0 863.97 971">
  <defs>
    <style>
      .cls-1 {
        stroke-width: 8px;
      }

      .cls-1, .cls-2 {
        fill: none;
        stroke: #fff;
        stroke-miterlimit: 10;
      }

      .cls-3 {
        fill: #fff;
      }

      .cls-2 {
        stroke-width: 10px;
      }
    </style>
  </defs>
  <g id="Layer_2-2" data-name="Layer_2">
    <rect class="cls-2" x="343.53" y="5" width="176.99" height="42.6"/>
    <rect class="cls-2" x="653.46" y="137.07" width="61.28" height="49.48" transform="translate(197.67 -345.69) rotate(32.91)"/>
    <rect class="cls-2" x="646.98" y="101.2" width="125.12" height="42.6" transform="translate(180.4 -365.82) rotate(32.91)"/>
    <rect class="cls-2" x="151.08" y="136.76" width="61.28" height="49.48" transform="translate(422.03 198.37) rotate(147.09)"/>
    <rect class="cls-2" x="93.72" y="100.89" width="125.12" height="42.6" transform="translate(353.87 139.87) rotate(147.09)"/>
    <g>
      <path class="cls-3" d="M619.69,304.49c-9.81,10.23-94.1,88.75-99.59,93.07-5.49,4.32-21.3-49.51-152.74-48.83-128.32,14.27-180.8,143.45-184.04,151.49-3.24,8.04-10.13,46.86-23.05,23.58-13.77-20.03,29.36-120.12,29.36-120.12,66.06-130.7,252.08-214.37,430.06-99.19Z"/>
      <path class="cls-3" d="M244.45,785.36c9.81-10.23,94.1-88.75,99.59-93.07,5.49-4.32,21.3,49.51,152.74,48.83,128.32-14.27,180.8-143.45,184.04-151.49,3.24-8.04,10.13-46.86,23.05-23.58,13.77,20.03-29.36,120.12-29.36,120.12-66.06,130.7-252.08,214.37-430.06,99.19Z"/>
      <path class="cls-3" d="M380.46,596.56l-162.92,164.06-25.06-35.89,93.99-158.93h76.9c3.84,12.81,9.04,23.75,17.09,30.76Z"/>
      <path class="cls-3" d="M482.99,494.31l162.92-164.06,25.06,35.89-93.99,158.93h-76.9c-3.84-12.81-9.04-23.75-17.09-30.76Z"/>
      <circle class="cls-3" cx="431.99" cy="539.02" r="45.86"/>
    </g>
    <circle class="cls-2" cx="431.99" cy="539.02" r="335.81"/>
    <path class="cls-2" d="M401.37,113.13C179.84,128.83,5,313.49,5,539.02s191.17,426.99,426.99,426.99,426.99-191.17,426.99-426.99S684.17,128.88,462.69,113.14"/>
    <polygon class="cls-1" points="394.3 45.37 394.3 108.64 401.37 108.64 401.37 51.97 462.69 51.97 462.69 108.64 469.75 108.64 469.75 45.37 394.3 45.37"/>
    <rect class="cls-3" x="392.08" y="108.74" width="13.34" height="10.16"/>
    <rect class="cls-3" x="458.7" y="104.98" width="14.59" height="14.06"/>
  </g>
</svg>